<?xml version="1.0" ?><svg viewBox="0 0 64 64" xmlns="http://www.w3.org/2000/svg"><defs><style>.cls-1{fill:#8a490e;}.cls-2{fill:#a16d3e;}.cls-3{fill:#f6b361;}.cls-4{fill:#f8c281;}.cls-5{fill:#ffff97;}.cls-6{fill:#ffffac;}.cls-7{fill:red;}.cls-8{fill:#d39953;}</style></defs><title/><g data-name="Layer 25" id="Layer_25"><path class="cls-1" d="M63.565,50.718l-4.327-7.079a1,1,0,0,0-1.458-.276A42.3,42.3,0,0,1,32,52,42.3,42.3,0,0,1,6.22,43.363a1,1,0,0,0-1.458.276L.435,50.718a2.989,2.989,0,0,0,.924,4.046,55.445,55.445,0,0,0,61.282,0A2.989,2.989,0,0,0,63.565,50.718Z"/><path class="cls-2" d="M63.565,50.718l-4.327-7.079a1,1,0,0,0-1.458-.276c-.162.123-.328.238-.491.358l4.276,7a2.989,2.989,0,0,1-.924,4.046A54.931,54.931,0,0,1,31,63.982c.333.006.666.018,1,.018a54.977,54.977,0,0,0,30.641-9.236A2.989,2.989,0,0,0,63.565,50.718Z"/><path class="cls-3" d="M59.238,43.639,32.854.479a1.04,1.04,0,0,0-1.708,0L4.762,43.639a1,1,0,0,0,.249,1.318A44.3,44.3,0,0,0,32,54a44.3,44.3,0,0,0,26.989-9.043A1,1,0,0,0,59.238,43.639Z"/><path class="cls-4" d="M59.238,43.657,32.854.5a1.04,1.04,0,0,0-1.708,0L31,.737l26.238,42.92a1,1,0,0,1-.249,1.319A44.257,44.257,0,0,1,31,54c.333.007.666.02,1,.02a44.3,44.3,0,0,0,26.989-9.043A1,1,0,0,0,59.238,43.657Z"/><path class="cls-5" d="M38.51,9.968,32.859.488a1.04,1.04,0,0,0-1.718,0L25.49,9.968a1,1,0,0,0,.477,1.436A8.012,8.012,0,0,0,32,11.412,7.941,7.941,0,0,0,35,12a7.892,7.892,0,0,0,3.033-.6,1,1,0,0,0,.477-1.436Z"/><path class="cls-6" d="M38.51,9.968,32.859.488a1.04,1.04,0,0,0-1.718,0L31,.724l5.51,9.244a1,1,0,0,1-.477,1.436,7.793,7.793,0,0,1-2.026.526A7.813,7.813,0,0,0,35,12a7.892,7.892,0,0,0,3.033-.6,1,1,0,0,0,.477-1.436Z"/><circle class="cls-7" cx="32" cy="20" r="4"/><circle class="cls-7" cx="18" cy="41" r="4"/><circle class="cls-7" cx="46" cy="41" r="4"/><circle class="cls-7" cx="32" cy="44" r="4"/><circle class="cls-7" cx="24" cy="30" r="4"/><circle class="cls-7" cx="40" cy="30" r="4"/><path class="cls-8" d="M27,38H25a1,1,0,0,1,0-2h2a1,1,0,0,1,0,2Z"/><path class="cls-8" d="M39,38H37a1,1,0,0,1,0-2h2a1,1,0,0,1,0,2Z"/><path class="cls-8" d="M33,30H31a1,1,0,0,1,0-2h2a1,1,0,0,1,0,2Z"/><path class="cls-8" d="M25,24H23a1,1,0,0,1,0-2h2a1,1,0,0,1,0,2Z"/><path class="cls-8" d="M41,24H39a1,1,0,0,1,0-2h2a1,1,0,0,1,0,2Z"/></g></svg>